PathFileType	4	(X/Y/Z)	Patient4_TMGait_0pt7_02_left_06.trc.trc
DataRate	CameraRate	NumFrames	NumMarkers	Units	OrigDataRate	OrigDataStartFrame	OrigNumFrames
88.050314465409	88.050314465409	6	33	mm	88.050314465409	18	       141
Frame#	Time	Sacral			L.Shoulder			Chest			R.Shoulder			Neck			R.ASIS			L.ASIS			R.Thigh.Superior			R.Thigh.Lateral			R.Thigh.Inferior			R.Patella			L.Thigh.Superior			L.Thigh.Lateral			L.Thigh.Inferior			L.Patella			L.Shank.Superior			L.Shank.Lateral			L.Shank.Inferior			R.Shank.Superior			R.Shank.Lateral			R.Shank.Inferior			R.Heel			R.Midfoot.Superior			R.Midfoot.Lateral			R.Toe			L.Heel			L.Midfoot.Lateral			L.Midfoot.Superior			L.Toe			L.Elbow			L.Wrist			R.Elbow			R.Wrist			
		X1	Y1	Z1	X2	Y2	Z2	X3	Y3	Z3	X4	Y4	Z4	X5	Y5	Z5	X6	Y6	Z6	X7	Y7	Z7	X8	Y8	Z8	X9	Y9	Z9	X10	Y10	Z10	X11	Y11	Z11	X12	Y12	Z12	X13	Y13	Z13	X14	Y14	Z14	X15	Y15	Z15	X16	Y16	Z16	X17	Y17	Z17	X18	Y18	Z18	X19	Y19	Z19	X20	Y20	Z20	X21	Y21	Z21	X22	Y22	Z22	X23	Y23	Z23	X24	Y24	Z24	X25	Y25	Z25	X26	Y26	Z26	X27	Y27	Z27	X28	Y28	Z28	X29	Y29	Z29	X30	Y30	Z30	X31	Y31	Z31	X32	Y32	Z32	X33	Y33	Z33	

18	6.653071428571	810.753288185149	1014.880443906302	529.338463215597	1000.032432273457	1427.615567172282	333.656421252131	1118.906170630441	1343.902576685388	477.469734725551	1069.822994656506	1426.289136717098	660.597159473037	1028.272136350243	1485.454571982693	487.182074537266	1037.648469874398	936.127955745036	631.892090679511	1008.569712368195	951.231427828115	357.213127198253	1032.299819541122	724.749321210904	607.913453809368	925.961857085324	634.474023676435	669.533060573125	986.255774589312	567.479212005672	590.792338922913	969.003312680912	485.701983488108	595.773217512037	1086.938474882745	785.572911623861	390.366112246088	1056.922823242746	657.444434706386	302.767905612136	1162.454066886239	605.020436011682	368.136797655812	1196.771389704715	540.517446854916	360.123155811875	1179.857692878450	465.522336886039	348.320585844114	1115.528377196067	336.363064527258	291.922640077383	1202.271550078083	236.126349364476	345.667176778590	934.622456337337	402.148169271141	601.584904945889	856.111288277282	302.480581354742	661.577626502709	893.016139317833	205.758353823593	596.573922340156	753.580124335181	43.321205821836	559.599634801613	923.906448126260	96.627039688321	601.229929907726	834.362217671632	36.667925482445	636.384064176763	1043.225336129328	42.284846768953	631.713431090979	1121.874188498481	52.708909451781	377.580162268715	1198.277929903702	61.047468269796	299.936926137803	1265.732547279494	141.103938245696	323.580674910888	1401.548347412196	116.312159710580	301.332793223146	822.875576784406	1122.047181502460	245.795393627318	750.615933105851	873.955560147836	246.010412401538	1188.503843724715	1108.911618348998	773.804205846024	1418.928027006749	1146.947617648273	673.192283246117	
19	6.664428571429	811.623982559829	1013.644973354724	527.899158121975	998.702290339706	1427.007220657156	332.293293207132	1118.211015150087	1343.550066450439	475.680736645670	1069.252436309481	1425.675287765416	658.943130519798	1026.965714716864	1484.669063795879	485.808236522123	1038.619963541853	935.098650624817	630.077086495045	1009.292308186263	949.889571797738	355.355615002751	1031.060384377103	723.265795911946	606.324359864252	923.663026127320	634.019814552490	668.508303811809	982.633102893577	566.458362930061	589.579103938949	964.685817092213	484.689223388513	594.762126741347	1085.979620695629	781.953794635410	388.876577857229	1053.515406316895	653.531204328878	302.286123901731	1158.565379114642	600.292335525884	367.445383831776	1191.955400589498	536.404132279797	360.002477083121	1176.094280761985	461.881191651048	348.460804343824	1113.211786759392	331.212494510725	294.175631520047	1202.453444961897	232.939486582960	347.642961392224	929.360791813020	401.432162422870	600.824613659171	850.319686793770	302.524037942999	661.279648657960	886.093472454771	205.409286105759	596.273622611972	745.582019319345	43.358899364813	559.694151464528	915.835894888084	96.455991009888	601.080025603486	826.357279955568	36.652619589828	636.539728275058	1035.212246619215	42.126238889759	631.710988334541	1125.297219533155	49.212688404250	382.230306874374	1200.936334117185	57.165639659026	303.871511413606	1267.970063401742	137.849967562292	326.004928047569	1403.741086936976	113.770601843631	303.048468025223	819.051557300703	1123.609597802191	244.559880371289	745.423649382761	875.741511940441	245.787854637714	1193.219917180267	1110.922603601235	770.195561023701	1418.512562566249	1165.633241228375	667.880370780772	
20	6.675785714286	812.638924539236	1012.280909693320	526.168591901015	997.391837322460	1426.300281405199	330.785934222611	1117.535704559727	1343.211447029167	473.804619165780	1068.562321625619	1425.008058526999	657.180668653832	1025.587274981775	1483.814864018970	484.305648245313	1039.725453892548	933.957934780892	628.148835507147	1010.305929457734	948.459347743034	353.429213164564	1030.190151281660	721.714229749143	604.656894597558	921.795787986598	633.424474029359	667.316806844701	979.574177520200	565.326074696015	588.246394823687	960.918837850080	483.496594033899	593.589407689522	1085.530683392744	778.334548214973	387.226737332834	1050.352635556479	649.553507106326	302.045281215385	1155.099897416794	595.612825983597	366.741077766940	1187.298275952481	531.940484531613	360.031851140628	1172.121372964466	457.817446676375	348.791474600302	1109.761421152745	326.150047748986	296.751652362885	1200.768508933762	229.309535726180	349.907749334135	924.595631870415	400.527274824169	599.912232905657	844.889675349084	302.504873439477	660.872391776188	879.367906367574	204.948858632066	595.900626221821	737.587503194040	43.395063868550	559.788590712416	907.772434949042	96.282852442668	600.907916525837	818.363822833229	36.621037646600	636.682908794338	1027.205383113997	41.943770629311	631.715993684023	1125.435898025226	46.226886333462	387.119433202297	1200.250314264830	53.318683722826	307.960678351992	1267.621262136876	133.773806506801	328.786788534606	1403.014210253980	109.119333954882	304.858231060325	815.756405580298	1124.747865843891	243.243450962463	741.240633618056	876.945113531223	245.366666957880	1197.595107567295	1112.826499433383	766.463292380283	1416.819750241055	1183.281880896860	662.812486826069	
21	6.687142857143	813.748423227924	1010.814901671609	524.160175316440	996.123142895765	1425.494658425794	329.126098240390	1116.893109684469	1342.872999652550	471.836802507553	1067.773072912281	1424.282371066878	655.306625767925	1024.171794194761	1482.898467804146	482.659575545846	1040.923820007922	932.713622553610	626.128793495924	1011.573197903269	946.963635032186	351.456101374136	1029.709086297831	720.107408584957	602.926483921776	920.402849777210	632.668563943258	665.950913034178	977.158478828208	564.061428860355	586.796519098818	957.773915578490	482.085900248727	592.236665020120	1085.598264371627	774.786893095488	385.416160057938	1047.459873581708	645.594054032788	302.046962633206	1152.101201505732	591.082438390018	366.062126501067	1182.870893153154	527.264681391696	360.282851749564	1168.071289155498	453.474664588131	349.338889800309	1105.494839037801	321.262542644318	299.459270860080	1197.542116410101	225.323022269194	352.369531952471	920.400614945569	399.410532147053	598.828992065573	839.865247657561	302.409497186603	660.334871403358	872.861426140808	204.367370008751	595.436853709762	729.595472128327	43.447869293101	559.884955359110	899.726795681825	96.120153973372	600.715941684752	810.382481508060	36.579811202311	636.805098097038	1019.210883826126	41.735160979147	631.731113507001	1122.663961054367	43.700998663037	391.916703225753	1196.689294847506	49.597011425269	311.961442657465	1265.083486325351	129.006398681605	331.854527896395	1399.840520165026	102.602417521465	306.819792432840	813.020190178098	1125.416778312090	241.835100967821	738.051710510856	877.549507180572	244.725651540700	1201.606289842866	1114.580709304878	762.657996971759	1414.008943004412	1199.770336447021	658.013674282682	
22	6.698500000000	814.897706111051	1009.282890158619	521.905978732609	994.924300724516	1424.603477245269	327.309212029829	1116.297356893564	1342.526847572551	469.776557339792	1066.911276123588	1423.506276591209	653.322067264273	1022.761571474848	1481.939737749875	480.858390052759	1042.171933625624	931.385574496683	624.039095041516	1013.040996654922	945.445695800653	349.455105528403	1029.623243560334	718.468931158638	601.145986448896	919.513060769245	631.746691885348	664.409113416127	975.444836989836	562.657526071679	585.233892953316	955.308742375195	480.430140628092	590.697535633937	1086.160570936607	771.397376106407	383.455532372291	1044.881299885635	641.774688964385	302.236956124760	1149.597950707234	586.818531399553	365.432036848645	1178.750798334426	522.562965756277	360.776790799867	1164.095825646263	449.042738373300	350.079974285295	1100.784648627431	316.672320727477	302.070916808984	1193.172568348612	221.140053981528	354.906418891087	916.825016010863	398.074355751309	597.566614959382	835.272855983322	302.240944483495	659.653321519871	866.589731053251	203.673682278245	594.873314733759	721.606544134179	43.555307264365	559.986500588422	891.715733716513	95.982968013491	600.509960416408	802.415895169038	36.546692766105	636.901990348432	1011.236785330734	41.497964131593	631.758015936262	1117.503304768897	41.616212990299	396.319632655639	1190.853604272407	46.130948370696	315.647024858737	1260.827971703945	123.787373259907	335.093041969206	1394.771087089438	94.666812074218	308.945223507247	810.882625550675	1125.586602010837	240.319499221771	735.854374085482	877.550285708300	243.845231576706	1205.223401730608	1116.138163975385	758.828821253214	1410.246858665611	1214.994093548143	653.505405693974	
23	6.709857142857	816.032027893596	1007.729348740978	519.455255976349	993.825526632430	1423.654684267887	325.335700980438	1115.761552771825	1342.174712143500	467.627949162041	1066.007423416355	1422.704061601878	651.232627762128	1021.402794193459	1480.973088918291	478.895877334031	1043.426113678998	930.008026706276	621.899197050403	1014.641459231906	943.969256263295	347.438906186599	1029.923949590454	716.835751132280	599.322456108303	919.140983040158	630.671180269559	662.696054920578	974.469763731323	561.126968656439	583.564637791433	953.568314093148	478.519475065969	588.982177702883	1087.168403312415	768.270889778589	381.369649592272	1042.686376879623	638.253621909671	302.509996194698	1147.607030212629	582.954784009204	364.854832505336	1175.023230561690	518.056511612112	361.473071645924	1160.355199360771	444.740671049649	350.941077817032	1096.013518726572	312.525371961171	304.347280186025	1188.082118617329	216.970911082849	357.374471944812	913.892216820613	396.531195745461	596.132109496749	831.122348199792	302.024684958267	658.824580063817	860.564957210383	202.899428468840	594.213716341360	713.624976498934	43.779780577831	560.098139880927	883.764150368222	95.888166437163	600.300502139558	794.470016692246	36.553118227107	636.973955838195	1003.292526193076	41.230099688007	631.796993670331	1110.560291621437	39.970713187037	400.090113921372	1183.400222948209	43.058221618758	318.831532119196	1255.336873955007	118.432277440139	338.345438764729	1388.368640726459	85.916278222716	311.183748306050	809.391436793110	1125.245540278208	238.679094536465	734.658770789870	876.955892881861	242.707085102179	1208.407386465244	1117.451266731559	755.021947766247	1405.701053018559	1228.865838455697	649.304417424562	
